# xmcd
#
# Track frame offsets:
#	150
#	18059
#	30259
#	44198
#	56223
#	75585
#	91942
#	107451
#	121097
#	135025
#	150252
#	163862
#	182868
#	194376
#	209786
#	222857
#	235054
#	251820
#	268742
#	287315
#	300725
#
# Disc length: 4131 seconds
#
# Revision: 0
# Processed by: cddbd v1.5.2PL0 Copyright (c) Steve Scherf et al.
# Submitted via: EasyCDDAExtractor 12.0.1.1
#
DISCID=18102115
DTITLE=JARNO SARJANEN - KESKIKALJA COWBOY - KOOTUT LEVYTYKSET  OSA2
DYEAR=2008
DGENRE=SUOMI
TTITLE0=Keskikalja - cowboy
TTITLE1=Ilotyttö
TTITLE2=Ammatinvalinta
TTITLE3=Tikkamies
TTITLE4=Mua vietiin
TTITLE5=On kotini maantie
TTITLE6=Jos henkinen kantti vain kestää
TTITLE7=Peluri
TTITLE8=Yön kuningatar
TTITLE9=Valot nään
TTITLE10=Maailma on lapsien
TTITLE11=Bussikuski
TTITLE12=Kerran saamme sunnuntain
TTITLE13=Mä ajelen vaan
TTITLE14=Kaikki lakastuu
TTITLE15=Ronkeli roos
TTITLE16=Pakotat mut lähtemään
TTITLE17=Tälläisiä muistoja tahtonut en
TTITLE18=Mainosvelho
TTITLE19=Luma long life
TTITLE20=Hiab
EXTD=
EXTT0=
EXTT1=
EXTT2=
EXTT3=
EXTT4=
EXTT5=
EXTT6=
EXTT7=
EXTT8=
EXTT9=
EXTT10=
EXTT11=
EXTT12=
EXTT13=
EXTT14=
EXTT15=
EXTT16=
EXTT17=
EXTT18=
EXTT19=
EXTT20=
PLAYORDER=
